<svg xmlns="http://www.w3.org/2000/svg" viewBox="0 0 224.2 41.9">
	<path d="M20.7.2C10.3.2 1.6 7.6.1 17.6h7.8c1.5-5.7 6.7-9.8 12.8-9.8 7.2 0 13.2 5.9 13.2 13.2 0 7.3-6 13.2-13.2 13.2-7.1 0-12.9-5.5-13.3-12.5V21H0v.7c.4 11.1 9.5 20 20.7 20 11.4 0 20.7-9.3 20.7-20.7C41.3 9.5 32.1.2 20.7.2zM46.4 21.5v19h7.4V21c-.3-7 6-12.5 13-12.5V1.2c-11.3 0-20.4 9.1-20.4 20.3zM88.9 0C77.5 0 68.2 9.3 68.2 20.8c0 11.4 9.3 20.7 20.7 20.7 3.5 0 6.8-.8 9.8-2.3v-8.9l-2.8 1.8h-.1c-2.1 1.2-4.4 1.9-6.9 1.9-7.3 0-13.2-5.9-13.2-13.2S81.6 7.5 88.9 7.5s13.4 6 13.4 13.3v19.7h7.5V20.8C109.7 9.4 100.4 0 88.9 0zM211.1 21.5L211 .4h-7.3v21.1c0 11.3 9.2 20.4 20.5 20.4v-7.5c-7.2 0-13.1-5.7-13.1-12.9zM117.7 40.3h7.6V.3h-7.6M145.5.3l-16.6 15.3v9.5h4c7.5-.1 13.6 7.1 13.6 15.5h7.2c0-10.7-7.5-19.3-16.6-22.4L156.6.3h-11.1zM186 31.4c-2.2 1.5-4.8 2.3-7.4 2.3-7.2 0-13.1-5.9-13.1-13.1s5.9-13 13.1-13c3.2 0 6.1 1.2 8.4 3.1l-17.4 12.7 3.4 5.3 5.1-3.8-.7.6 12.9-9.2-.5.3 7.2-4.7C193.7 5 186.7.3 178.6.3c-11.2 0-20.4 9.2-20.4 20.4 0 11.3 9.2 20.4 20.4 20.4 4.2 0 8.1-1.2 11.6-3.6 3.3-2.2 6-5.4 7.4-9.2 0 0 .3-.9.5-1.4h-7.9c-1.1 1.8-2.5 3.4-4.2 4.5z"/>
</svg>
